<?xml version="1.0" standalone="no"?>
<!DOCTYPE svg PUBLIC "-//W3C//DTD SVG 20010904//EN"
 "http://www.w3.org/TR/2001/REC-SVG-20010904/DTD/svg10.dtd">
<svg version="1.0" xmlns="http://www.w3.org/2000/svg"
 width="429.000000pt" height="500.000000pt" viewBox="0 0 429.000000 500.000000"
 preserveAspectRatio="xMidYMid meet">

<g transform="translate(0.000000,500.000000) scale(0.100000,-0.100000)"
fill="#000000" stroke="none">
<path d="M1893 4963 c9 -2 23 -2 30 0 6 3 -1 5 -18 5 -16 0 -22 -2 -12 -5z"/>
<path d="M1773 4953 c9 -2 25 -2 35 0 9 3 1 5 -18 5 -19 0 -27 -2 -17 -5z"/>
<path d="M1668 4943 c6 -2 18 -2 25 0 6 3 1 5 -13 5 -14 0 -19 -2 -12 -5z"/>
<path d="M1578 4933 c6 -2 18 -2 25 0 6 3 1 5 -13 5 -14 0 -19 -2 -12 -5z"/>
<path d="M1498 4923 c6 -2 18 -2 25 0 6 3 1 5 -13 5 -14 0 -19 -2 -12 -5z"/>
<path d="M1438 4913 c7 -3 16 -2 19 1 4 3 -2 6 -13 5 -11 0 -14 -3 -6 -6z"/>
<path d="M1855 4769 c-557 -46 -1043 -173 -1522 -399 l-113 -53 0 -206 c0
-113 -3 -318 -6 -456 -8 -304 11 -917 30 -1035 45 -265 123 -526 229 -760 238
-526 577 -950 1022 -1281 199 -148 485 -296 653 -339 l49 -13 124 60 c285 139
590 343 781 521 26 25 56 51 68 59 11 8 70 69 130 135 421 463 671 991 765
1618 18 120 20 411 5 850 -6 168 -14 433 -18 589 -9 329 8 287 -152 363 -376
177 -725 274 -1205 334 -144 18 -680 27 -840 13z m692 -479 c273 -22 526 -62
753 -120 45 -11 86 -18 93 -14 7 4 9 3 4 -1 -9 -11 103 -47 123 -39 8 3 11 2
7 -2 -9 -9 92 -46 104 -38 5 3 9 1 9 -4 0 -9 40 -25 65 -26 6 -1 12 -4 15 -7
10 -13 82 -39 91 -33 5 3 9 1 9 -4 0 -11 69 -44 80 -37 4 3 11 -2 14 -11 4 -9
13 -14 21 -10 8 3 15 1 15 -5 0 -6 4 -8 9 -4 11 6 16 -245 16 -815 0 -466 -3
-489 -97 -825 -199 -710 -655 -1340 -1239 -1713 -127 -81 -285 -167 -396 -214
-60 -26 -64 -27 -112 -12 -27 8 -94 33 -148 55 -708 295 -1361 1098 -1579
1944 -49 194 -62 287 -74 535 -11 248 -26 1010 -19 1010 2 0 51 21 109 46 413
181 885 297 1380 338 191 17 575 19 747 6z"/>
<path d="M1960 3880 c-588 -83 -1078 -530 -1205 -1102 l-17 -77 -46 5 c-71 9
-161 33 -204 55 -21 11 -38 17 -38 14 0 -18 34 -66 70 -99 46 -42 73 -54 147
-70 l52 -11 5 -160 c2 -110 10 -192 25 -262 149 -717 802 -1204 1532 -1141
578 50 1066 435 1248 986 46 139 65 267 66 435 l0 148 25 5 c47 9 110 47 149
89 38 42 87 123 78 131 -2 2 -24 -7 -48 -20 -47 -26 -103 -43 -181 -55 l-48
-8 -10 41 c-68 269 -191 489 -384 681 -204 204 -423 325 -706 391 -84 20 -139
26 -275 29 -93 2 -199 0 -235 -5z m65 -146 c-11 -8 -26 -12 -33 -9 -8 3 -19 6
-25 6 -7 1 6 5 28 9 22 4 42 8 45 8 3 1 -4 -5 -15 -14z m308 5 c130 -19 338
-81 370 -109 7 -6 -69 -152 -246 -470 -17 -30 -60 -109 -97 -174 -36 -66 -71
-121 -77 -123 -6 -2 -13 9 -16 25 -3 15 -18 40 -34 56 -30 31 -27 -9 -36 416
l-2 135 37 -3 c25 -3 42 -11 53 -28 24 -37 52 -48 86 -33 36 14 49 36 49 83 0
38 -18 86 -32 86 -4 0 -8 6 -8 14 0 27 -44 66 -75 68 -16 1 -39 9 -50 19 -11
9 -30 20 -42 24 -13 3 -23 11 -23 16 0 12 55 11 143 -2z m-469 -44 c-13 -20
-25 -25 -55 -25 -31 0 -47 -7 -74 -32 -19 -18 -48 -43 -64 -56 -17 -12 -36
-38 -42 -57 l-13 -35 -28 48 c-15 26 -28 52 -28 58 0 14 133 74 215 98 33 10
65 19 70 21 30 10 35 4 19 -20z m289 -8 c-26 -28 -33 -47 -48 -127 -12 -59
-13 -61 -14 -24 -1 54 22 131 50 160 28 30 40 22 12 -9z m-149 -14 c-17 -50
-17 -79 1 -138 16 -53 13 -69 -5 -35 -26 49 -19 210 9 210 5 0 3 -17 -5 -37z
m232 -48 c-14 -20 -28 -52 -32 -71 -5 -30 -24 -49 -24 -25 0 31 71 163 77 144
2 -6 -7 -27 -21 -48z m-340 -127 c9 -18 27 -48 41 -65 13 -18 19 -33 13 -33
-16 0 -69 89 -85 144 -8 27 -14 66 -14 85 1 28 4 21 15 -31 7 -37 21 -82 30
-100z m444 85 c-18 -15 -39 -41 -46 -58 -12 -28 -13 -28 -14 -6 0 24 76 108
87 97 3 -3 -9 -18 -27 -33z m-563 -168 c25 -47 70 -83 127 -101 39 -12 40 -13
10 -13 -17 -1 -50 11 -76 28 -58 37 -105 127 -113 216 l-5 60 18 -75 c10 -41
28 -93 39 -115z m1158 76 c33 -25 87 -70 119 -101 61 -57 176 -194 176 -210 0
-5 -66 -48 -147 -96 -82 -48 -260 -154 -397 -236 -137 -82 -250 -147 -251
-146 -1 2 -9 17 -18 33 -18 35 -30 10 203 430 73 132 152 274 174 317 47 87
39 87 141 9z m-1440 -72 l58 -102 -17 -46 c-20 -57 -21 -111 -1 -158 8 -19 15
-60 15 -90 0 -64 20 -117 62 -160 53 -55 26 -54 -72 4 -52 30 -129 75 -170 98
-153 86 -295 168 -304 176 -9 8 75 125 149 207 54 60 205 183 216 177 4 -3 33
-51 64 -106z m201 -101 c43 -61 122 -109 223 -135 54 -13 75 -22 55 -22 -36
-1 -125 24 -174 49 -82 42 -161 148 -174 236 -6 33 -3 29 18 -24 13 -34 37
-81 52 -104z m354 140 c0 -2 3 -74 7 -160 3 -87 3 -158 -1 -158 -20 0 -46 23
-46 41 0 22 -25 75 -47 101 -11 12 -12 21 -4 37 6 11 11 32 11 47 0 15 8 34
18 43 10 9 21 24 25 34 5 13 37 26 37 15z m-464 -180 c43 -86 134 -166 214
-188 19 -6 93 -19 165 -31 124 -19 163 -29 117 -29 -13 0 -80 9 -150 20 -154
25 -231 58 -292 128 -37 41 -80 110 -80 127 0 14 11 2 26 -27z m117 -306 c64
-30 115 -39 292 -52 83 -6 174 -17 204 -25 57 -15 86 -32 36 -21 -85 19 -218
36 -279 36 -94 0 -191 18 -251 46 -59 27 -135 89 -135 110 0 7 19 -6 43 -29
23 -23 64 -53 90 -65z m1632 27 c28 -54 85 -221 85 -246 0 -23 -125 -12 -266
23 -60 15 -140 30 -179 33 l-69 6 194 117 c107 64 198 117 202 117 4 1 19 -22
33 -50z m-2110 -114 c94 -53 173 -99 177 -103 4 -4 -16 -6 -45 -4 -32 2 -93
-6 -157 -22 -96 -23 -172 -37 -272 -50 -32 -4 -38 -2 -38 14 0 29 49 190 75
248 l25 54 32 -20 c18 -11 110 -63 203 -117z m463 -53 c67 -46 137 -60 352
-72 234 -14 380 -38 380 -63 0 -5 -8 -6 -17 -2 -52 22 -147 36 -313 46 -102 6
-218 17 -259 25 -75 14 -181 58 -181 75 0 13 9 11 38 -9z m1417 -168 c178 -37
291 -54 378 -54 44 0 77 -4 77 -10 0 -23 -271 4 -415 41 -44 11 -120 23 -170
26 -114 7 -184 -10 -318 -78 -55 -27 -105 -48 -111 -46 -18 7 219 119 281 132
88 20 147 17 278 -11z m-1580 -30 c51 -13 102 -33 274 -105 13 -5 22 -12 19
-14 -3 -3 -60 18 -129 46 -68 27 -151 56 -184 64 -77 19 -230 19 -336 1 -153
-27 -445 -48 -428 -32 2 3 58 7 124 11 66 4 167 14 225 22 58 8 132 19 165 23
76 11 192 3 270 -16z m261 1 c55 -27 159 -44 344 -55 249 -15 400 -38 400 -61
0 -6 -7 -6 -17 -1 -39 20 -317 52 -447 52 -114 0 -272 34 -306 66 -18 18 -10
18 26 -1z m-76 -164 c113 -38 197 -70 186 -71 -10 0 -106 30 -213 66 -193 66
-194 66 -303 65 -61 0 -138 -5 -172 -10 -117 -18 -141 -20 -132 -12 16 16 246
40 339 36 80 -3 112 -11 295 -74z m1390 47 c63 -11 119 -24 125 -29 13 -13 -2
-12 -117 13 -62 13 -143 22 -203 22 -95 1 -104 -1 -187 -37 -48 -22 -92 -37
-98 -35 -17 5 159 79 209 88 58 9 125 4 271 -22z m-2051 -14 c2 -2 -32 -5 -77
-5 -45 -1 -87 -2 -94 -3 -6 -1 -13 4 -15 11 -3 9 19 10 89 6 51 -3 95 -7 97
-9z m541 -87 c128 -57 309 -107 386 -107 33 0 45 -3 38 -10 -24 -24 -224 24
-412 99 -72 29 -118 41 -155 42 -33 0 -45 3 -33 8 29 11 114 -4 176 -32z m357
32 c54 -20 160 -38 303 -49 204 -17 429 -65 406 -87 -3 -3 -24 2 -47 11 -76
31 -161 44 -409 66 -122 11 -264 40 -283 59 -14 14 -6 14 30 0z m953 -36 c0
-5 -24 -8 -53 -9 -37 -1 -69 -10 -114 -33 -35 -17 -63 -27 -63 -21 0 22 123
70 178 70 28 0 52 -3 52 -7z m550 -61 c0 -58 -33 -220 -62 -301 -40 -114 -75
-191 -86 -191 -10 0 -91 45 -359 201 -160 93 -163 95 -191 152 -16 31 -26 57
-23 57 3 0 35 25 69 55 l63 55 295 0 294 0 0 -28z m-1893 -16 c26 -13 72 -32
101 -42 28 -10 52 -21 52 -24 0 -4 -510 -312 -647 -390 l-50 -29 -36 77 c-54
118 -107 311 -107 393 0 21 6 29 23 32 12 2 156 5 319 6 294 1 297 1 345 -23z
m593 -50 c41 -8 120 -20 175 -26 127 -15 217 -34 286 -59 65 -25 149 -76 149
-91 0 -6 -15 0 -32 13 -85 64 -198 99 -393 122 -160 19 -287 43 -300 57 -7 8
-2 9 15 4 14 -3 59 -13 100 -20z m-261 -153 c-28 -54 -80 -147 -114 -208 -34
-60 -104 -186 -155 -280 -131 -240 -151 -275 -157 -275 -3 0 -35 21 -72 47
-79 56 -224 199 -269 265 l-32 47 22 15 c13 7 187 112 388 231 201 120 379
226 395 236 17 10 34 19 38 19 5 0 -15 -44 -44 -97z m253 68 c13 -6 70 -24
128 -41 307 -91 406 -132 485 -202 25 -22 44 -43 41 -45 -3 -3 -17 7 -33 22
-75 70 -184 118 -458 200 -192 58 -237 74 -203 75 9 0 27 -4 40 -9z m-56 -136
c-1 -57 -2 -59 -32 -67 -20 -5 -49 -28 -79 -63 -26 -31 -50 -54 -52 -51 -3 2
30 69 73 147 85 157 93 159 90 34z m114 12 c41 -21 120 -51 175 -68 160 -50
240 -93 318 -170 37 -37 67 -75 66 -85 0 -18 -1 -18 -12 0 -30 49 -107 121
-167 156 -36 22 -123 58 -195 81 -140 45 -246 91 -267 116 -15 19 -18 20 82
-30z m114 -128 c131 -50 211 -95 273 -153 59 -54 118 -145 110 -169 -2 -6 -13
9 -24 35 -46 103 -161 195 -325 259 -118 45 -220 98 -226 116 -2 7 22 -3 54
-22 32 -19 94 -49 138 -66z m719 -103 l197 -113 -45 -61 c-90 -120 -322 -320
-344 -296 -5 5 -36 56 -69 113 l-60 104 20 27 c10 15 24 46 29 69 5 23 19 55
31 71 15 21 22 46 23 87 2 94 5 113 13 113 4 0 96 -51 205 -114z m-949 68 c16
-41 6 -74 -26 -94 -18 -11 -36 -20 -40 -20 -9 0 -48 41 -47 49 0 7 91 79 100
80 4 1 10 -6 13 -15z m26 6 c0 -5 -4 -10 -10 -10 -5 0 -10 5 -10 10 0 6 5 10
10 10 6 0 10 -4 10 -10z m54 -25 c41 -17 45 -38 20 -86 -12 -24 -21 -30 -42
-27 -22 2 -29 10 -36 40 -6 26 -6 46 2 63 14 30 10 29 56 10z m146 -74 c0 -25
-42 -85 -63 -89 -33 -7 -55 86 -30 130 2 4 24 0 48 -9 30 -10 45 -21 45 -32z
m-329 -3 c25 -31 24 -44 -6 -73 -33 -34 -81 -34 -97 -1 -15 34 -5 52 39 75 21
10 40 19 41 20 2 1 12 -9 23 -21z m126 -29 c13 -22 13 -29 0 -62 -13 -31 -21
-37 -45 -37 -38 0 -54 20 -50 61 2 24 11 37 33 50 37 21 42 20 62 -12z m249
-4 c22 -54 18 -92 -12 -112 -24 -15 -29 -15 -53 -2 -35 20 -37 41 -6 75 14 15
28 38 31 51 9 33 23 29 40 -12z m142 -20 c64 -59 116 -146 127 -210 5 -30 4
-36 -4 -25 -6 8 -11 22 -11 30 0 8 -13 42 -29 75 -25 54 -71 107 -141 164 -14
11 -20 20 -13 21 6 0 38 -25 71 -55z m-298 6 c0 -11 5 -23 10 -26 17 -11 11
-43 -14 -72 -21 -24 -26 -26 -50 -15 -19 8 -26 19 -26 39 0 47 11 73 31 73 10
0 21 5 24 10 10 17 25 11 25 -9z m-320 -56 c7 -8 26 -15 42 -15 29 0 30 -1 23
-37 -9 -49 -21 -63 -56 -63 -44 0 -65 39 -50 90 13 43 22 48 41 25z m128 -10
c7 -15 20 -25 33 -25 19 0 21 -4 14 -37 -9 -50 -12 -53 -42 -53 -43 0 -62 25
-56 73 9 67 31 85 51 42z m292 -89 c9 -41 -2 -62 -36 -70 -56 -15 -95 69 -55
120 12 15 21 33 21 41 0 24 62 -56 70 -91z m105 64 c30 -58 9 -120 -41 -120
-49 0 -73 78 -29 98 13 6 30 20 37 32 7 11 14 20 15 20 1 0 9 -13 18 -30z
m-285 -20 c11 -11 29 -20 40 -20 16 0 20 -7 20 -30 0 -34 -30 -70 -59 -70 -33
0 -51 28 -51 79 0 66 14 77 50 41z m-286 -44 c7 -28 -2 -58 -15 -50 -12 7 -12
74 0 74 5 0 12 -11 15 -24z m716 -64 c5 -20 9 -53 9 -72 -1 -29 -4 -24 -13 25
-7 33 -20 76 -30 95 l-17 35 20 -23 c11 -13 25 -40 31 -60z m-119 -18 c-14
-61 -33 -83 -56 -64 -8 7 -15 27 -15 44 0 26 5 34 30 43 19 7 32 21 37 39 13
51 17 -4 4 -62z m-471 56 c18 -34 -4 -95 -41 -111 -51 -21 -91 24 -75 85 5 21
12 26 39 26 17 0 39 5 47 10 19 13 18 13 30 -10z m111 -32 c34 -42 19 -88 -30
-88 -38 0 -61 27 -61 72 0 37 1 38 36 38 25 0 41 -7 55 -22z m-288 -78 c15
-30 27 -64 27 -76 0 -65 42 -127 99 -145 20 -6 63 -25 96 -42 33 -16 71 -33
85 -38 77 -23 -135 -1 -245 26 -88 22 -237 78 -242 92 -3 6 8 33 22 60 15 26
48 86 73 133 36 66 48 80 52 65 3 -11 18 -45 33 -75z m439 17 c3 -28 0 -48
-10 -59 -35 -41 -102 -3 -102 58 0 27 4 32 30 38 17 3 33 13 36 21 11 28 41
-11 46 -58z m128 2 c0 -42 -21 -69 -53 -69 -28 0 -41 9 -56 37 -17 34 -14 63
8 63 10 0 29 9 42 19 22 18 26 18 42 4 10 -10 17 -31 17 -54z m-360 -60 c0
-72 -60 -103 -100 -52 -28 36 -23 67 11 71 15 2 35 12 44 23 25 26 45 8 45
-42z m111 -40 c-18 -44 -34 -53 -61 -39 -49 26 -51 100 -2 100 15 0 34 5 42
10 11 7 18 3 26 -12 9 -16 8 -29 -5 -59z m-244 49 c-3 -8 -6 -5 -6 6 -1 11 2
17 5 13 3 -3 4 -12 1 -19z m613 -55 c-7 -23 -8 -18 -8 27 0 45 1 50 8 28 5
-16 5 -40 0 -55z m202 -16 c55 -96 62 -84 -87 -135 -93 -32 -190 -55 -282 -66
l-53 -7 0 45 c0 43 1 44 38 51 20 4 51 15 68 26 17 10 39 19 48 19 9 0 24 9
34 21 9 11 32 27 51 36 19 9 41 29 50 45 9 15 23 28 32 28 9 0 22 7 29 15 16
19 15 20 72 -78z m-286 42 c-8 -42 -35 -79 -57 -79 -11 0 -19 1 -19 3 0 1 -4
17 -9 35 -9 29 -7 34 12 41 13 5 29 16 36 24 20 25 44 9 37 -24z m-123 7 c14
-11 17 -25 15 -58 -2 -36 -7 -44 -25 -46 -20 -3 -23 1 -23 30 0 18 -4 40 -10
48 -5 9 -5 19 2 27 13 16 18 16 41 -1z m-55 -34 c33 -43 1 -112 -53 -112 -51
0 -71 53 -44 114 10 21 16 24 48 19 20 -3 42 -12 49 -21z m-138 -93 c0 -39
-12 -42 -50 -14 -19 14 -44 25 -57 25 -32 0 -30 31 4 50 26 15 30 14 65 -9 29
-19 38 -31 38 -52z m-165 59 c14 -6 25 -17 25 -25 0 -20 -14 -16 -40 12 -26
28 -23 31 15 13z m403 -39 c-21 -14 -26 -10 -21 11 4 16 8 18 20 9 11 -10 11
-14 1 -20z m-165 -59 c22 0 -17 -20 -40 -20 -28 0 -37 14 -22 38 12 19 12 19
30 1 11 -11 25 -19 32 -19z"/>
<path d="M4247 4489 c4 -13 8 -18 11 -10 2 7 -1 18 -6 23 -8 8 -9 4 -5 -13z"/>
</g>
</svg>
